<svg width="213" height="321" viewBox="0 0 213 321" fill="none" xmlns="http://www.w3.org/2000/svg">
<g clip-path="url(#clip0_308_157)">
<mask id="mask0_308_157" style="mask-type:luminance" maskUnits="userSpaceOnUse" x="0" y="0" width="213" height="321">
<path d="M213 0H0V321H213V0Z" fill="white"/>
</mask>
<g mask="url(#mask0_308_157)">
<path d="M106 301C221 301 208.5 176 208.5 162C208.5 109 172 9 106 9C37.5001 9 3.50002 109.5 3.50015 162C3.50019 179.5 -8.99989 301 106 301Z" fill="#EAEAEA"/>
<path d="M164.398 43.4112C180.594 57.5561 195.315 85.4408 201.204 114.962C201.204 114.962 208.491 137.978 208 169H212C212 142.481 208.992 107.457 208.565 102.953C205.62 71.9313 177.65 26.2583 165.87 15.3914C141.824 -4.62183 118.759 -0.118555 106 1.88289V27C128.083 22.6155 142.806 23.5166 164.398 43.4112ZM47.6019 43.4112C31.4066 57.5561 16.6852 85.4408 10.7962 114.962C10.7962 114.962 2.94448 137.978 3.43512 169H3.18987e-05C3.18987e-05 142.481 3.00768 107.457 3.43512 102.953C6.37956 71.9313 34.3499 26.2583 46.1304 15.3914C70.176 -4.62183 93.2408 -0.118555 106 1.88289V27C83.9167 22.6155 69.1945 23.5166 47.6019 43.4112ZM163 307C152.544 314.601 124.685 317.967 106 320.5C106 320.5 106 296 106 292C115.5 292 121.595 293.051 131 291C154.077 285.932 171.5 274 186.5 257.5C204 246 206.638 207.35 208 194.5C208.218 182.5 208 171 208 169C208 169 211.443 169 212 169C212.5 171 209.154 210.833 208.783 218.012C206.68 257.95 189.79 287.574 163 307ZM49.0508 307C59.5068 314.601 87.3657 317.967 106.051 320.5C106.051 320.5 106.051 296 106.051 292C96.5508 292 90.4558 293.051 81.0508 291C57.9738 285.932 41.0428 276.771 28.0508 260C19.2648 248.658 19 249.5 10.7962 236C6.29623 218.79 3.43512 171 3.43512 169C3.43512 169 0.607813 169 0.0508132 169C-0.449187 171 2.89651 210.833 3.26751 218.012C5.37051 257.95 22.2608 287.574 49.0508 307Z" fill="#D5D5D5" id="lip" data-code="48477009" data-display="lip" data-system="http://snomed.info/sct"/>
<path d="M123.5 127.918C135.3 124.54 162 134.872 177 187.029C177 187.029 182 191.5 190 191.5C198 191.5 208 184.049 208 184.049C208.5 169.644 207.5 141.33 206 139.343H178C171 136.363 170 128.912 170 127.421C154 121.461 113 109.042 106 108.049V127.918C107.5 127.918 122 127.421 123.5 127.918ZM88.4998 127.918C76.6998 124.54 49.9998 134.872 34.9998 187.029C34.9998 187.029 29.9998 191.5 21.9998 191.5C13.9998 191.5 6.99984 184.049 6.99984 184.049C3.49997 176.598 1.99998 156.729 5.49963 139.343H33.9998C40.9998 136.363 41.9999 128.912 41.9999 127.421C57.9999 121.461 99 109 106 108.049V127.918H88.4998Z" fill="#EAEAEA" id="zacht_gehemelte" data-code="49460000" data-display="zacht gehemelte" data-system="http://snomed.info/sct"/>
<path d="M105.283 127.029L105.282 127.279C105.874 127.28 106.509 127.283 107.194 127.287L107.197 127.037C107.799 127.04 108.44 127.044 109.122 127.05L109.12 127.3L109.119 127.301C109.721 127.306 110.355 127.312 111.025 127.319L111.029 127.069C111.637 127.075 112.275 127.082 112.943 127.09L112.939 127.34L112.938 127.341C113.55 127.349 114.188 127.356 114.854 127.365H114.855L114.859 127.115C115.475 127.123 116.114 127.132 116.778 127.142L116.774 127.392L116.773 127.393C117.393 127.402 118.035 127.41 118.7 127.42L118.704 127.171C119.323 127.181 119.961 127.191 120.62 127.202L120.616 127.452C121.232 127.462 121.865 127.472 122.518 127.483L122.522 127.233L123.504 127.25L123.523 127.732L123.525 127.749H123.522C123.52 127.749 123.517 127.749 123.513 127.75C123.503 127.751 123.489 127.753 123.47 127.755C123.431 127.76 123.374 127.768 123.299 127.781C123.148 127.805 122.928 127.846 122.654 127.913L122.61 127.734C122.578 127.733 122.546 127.733 122.514 127.733V127.69C122.064 127.803 121.489 127.979 120.847 128.249L120.943 128.478C120.441 128.689 119.896 128.958 119.34 129.301L119.209 129.09C118.717 129.394 118.215 129.753 117.724 130.18L117.888 130.369C117.457 130.744 117.034 131.171 116.633 131.659L116.439 131.5C116.067 131.953 115.713 132.457 115.389 133.016L115.605 133.141C115.319 133.635 115.055 134.175 114.821 134.764L114.589 134.672C114.374 135.215 114.184 135.799 114.026 136.426L114.269 136.487C114.128 137.044 114.013 137.638 113.927 138.269L113.68 138.236C113.601 138.817 113.546 139.429 113.52 140.075L113.769 140.084C113.756 140.379 113.75 140.68 113.75 140.989L113.751 141.002C113.752 141.014 113.753 141.031 113.754 141.052C113.756 141.096 113.759 141.16 113.763 141.244C113.77 141.41 113.779 141.653 113.783 141.958L113.533 141.961H113.53C113.537 142.455 113.537 143.113 113.501 143.881L113.751 143.893C113.724 144.481 113.678 145.133 113.604 145.824L113.354 145.797L113.353 145.796C113.287 146.407 113.2 147.048 113.082 147.701L113.328 147.746C113.215 148.371 113.076 149.008 112.904 149.641L112.663 149.576L112.659 149.575C112.492 150.192 112.295 150.805 112.06 151.4L112.061 151.401L112.293 151.493C112.051 152.103 111.77 152.697 111.444 153.257L111.229 153.131L111.227 153.13C110.901 153.691 110.53 154.216 110.107 154.689L110.108 154.69L110.295 154.857C109.855 155.349 109.36 155.789 108.803 156.158L108.664 155.95L108.662 155.948C108.143 156.292 107.569 156.57 106.935 156.77L106.936 156.773L107.011 157.011C106.702 157.109 106.379 157.188 106.043 157.248L105.994 157.256L105.945 157.246C105.596 157.168 105.263 157.075 104.946 156.968L105.026 156.731V156.729C104.349 156.5 103.751 156.206 103.222 155.854L103.221 155.857L103.083 156.065C102.486 155.669 101.974 155.202 101.535 154.678L101.728 154.517C101.3 154.007 100.943 153.439 100.644 152.827L100.643 152.828L100.418 152.938C100.123 152.335 99.8836 151.692 99.6865 151.019L99.9258 150.949C99.7417 150.32 99.5962 149.663 99.4766 148.986L99.4756 148.987L99.2285 149.031C99.1126 148.375 99.0229 147.702 98.9492 147.02L99.1973 146.993L99.1992 146.992C99.1278 146.331 99.0708 145.66 99.0225 144.986V144.987L98.7725 145.004C98.7244 144.334 98.6835 143.66 98.6426 142.992L98.8916 142.976C98.8501 142.3 98.8074 141.628 98.7568 140.967L98.5098 140.986C98.4577 140.305 98.3964 139.638 98.3174 138.993L98.5635 138.962C98.4793 138.274 98.3727 137.609 98.2373 136.975L97.9971 137.027C97.9619 136.862 97.9242 136.7 97.8848 136.541L97.7598 136.069C97.66 135.72 97.5472 135.384 97.4238 135.063L97.6572 134.974H97.6562C97.385 134.268 97.0609 133.626 96.7002 133.042L96.4902 133.173C96.1033 132.546 95.6725 131.987 95.2188 131.49L95.4033 131.322C94.8927 130.762 94.3526 130.279 93.8125 129.864L93.6602 130.061C93.0562 129.596 92.4505 129.217 91.8838 128.91L92.002 128.69C91.2441 128.28 90.5553 127.998 90.0293 127.811L89.9473 128.045C89.637 127.935 89.3843 127.86 89.2109 127.812C89.1244 127.788 89.0574 127.771 89.0127 127.76C88.9904 127.755 88.9739 127.75 88.9629 127.748C88.9574 127.746 88.9527 127.746 88.9502 127.746L88.9482 127.745L89 127.25C89.3349 127.251 89.6557 127.25 89.9629 127.25V127.498C90.6654 127.496 91.2988 127.492 91.877 127.487L91.876 127.239C92.591 127.233 93.2214 127.224 93.7939 127.214L93.7979 127.462C94.507 127.45 95.1276 127.436 95.71 127.42L95.7041 127.171C96.366 127.154 96.9779 127.134 97.6162 127.116L97.624 127.366C98.2194 127.349 98.8363 127.335 99.5352 127.321V127.319L99.5303 127.069C100.104 127.058 100.732 127.048 101.449 127.041L101.452 127.291C102.027 127.285 102.658 127.282 103.363 127.28L103.362 127.029C103.948 127.027 104.586 127.027 105.283 127.029Z" fill="#EAEAEA" stroke="black" stroke-width="0.5" stroke-dasharray="2 2" id="huig" data-code="26140008" data-display="huig" data-system="http://snomed.info/sct"/>
<path d="M106 52C106 52 132 52.6 149 65C155 74.8 172 94.7 170 127L106 107.5C103.5 107.5 42 127 42 127C42 92.7 55.1 73.3 65 65C82 52.6 106 52 106 52Z" fill="#CFCFCF" id="hard_gehemelte" data-code="90228003" data-display="hard gehemelte" data-system="http://snomed.info/sct"/>
<path d="M106 167V157C109.5 156.5 113.5 153.5 113.5 140C113.5 140 113.6 136.8 114 136C121.4 135.3 131 138.5 137 144C143.7 150.2 150 162.5 150 170C146 169.4 118.5 164 106 167ZM106 167V157C109.5 156.5 113.5 153.5 113.5 140C113.5 140 113.6 136.8 114 136C121.4 135.3 131 138.5 137 144C143.7 150.2 150 162.5 150 170C146 169.4 118.5 164 106 167Z" fill="#9F9F9F"/>
<path d="M106 167V157C102.5 156.5 99 153.5 99 140C99 140 98.4 136.8 98 136C90.6 135.3 81 138.5 75 144C67.8463 150.944 63.2627 160.111 62 170C66 169.4 93.5 164 106 167ZM106 167V157C102.5 156.5 99 153.5 99 140C99 140 98.4 136.8 98 136C90.6 135.3 81 138.5 75 144C67.8463 150.944 63.2627 160.111 62 170C66 169.4 93.5 164 106 167Z" fill="#9F9F9F"/>
<path d="M116 132C116 132 114.5 134 114 136C114.1 136.3 113.9 135.7 114 136C114.4 136 113.6 136 114 136C121.5 135.5 131 138.5 137 144C143.5 150 150 162 150 170C150 170 160.5 172 173 175C171.5 170 168.3 163 165 157C165.1 157.2 164.9 156.8 165 157C162.285 151.84 159.034 146.979 155.3 142.5C156.3 143.5 154.3 141.3 155.3 142.5C150.781 137.13 145.24 132.712 139 129.5C139.4 129.8 138.6 129.3 139 129.5C133 126.5 121 125 116 132ZM96 132C96 132 97.5 134 98 136C98.1 135.7 97.9 136.3 98 136C98.4 136 97.6 136 98 136C89.696 135.714 81.5897 138.571 75.3 144C68.0359 150.9 63.344 160.072 62 170C62 169.7 59.6 174.9 62 170C62 170 52 172.5 39 175C40.5 170 43.7 163 47 157C47.1 156.8 46.9 157.2 47 157C49.715 151.84 52.9663 146.979 56.7 142.5C57.7 141.3 55.7 143.6 56.7 142.5C61.219 137.13 66.7595 132.712 73 129.5C73.4 129.3 72.6 129.8 73 129.5C79 126.5 91 125 96 132Z" fill="#B6B6B6" id="keelamandel" data-code="75573002" data-display="keelamandel" data-system="http://snomed.info/sct"/>
<path d="M190.8 166C191.6 166 192.333 166.1 193 166.3L192.9 166.8L194.9 167.6L195.1 167.2C195.767 167.533 196.367 167.933 196.9 168.4L196.6 168.7L198.1 170.2L198.5 169.9C199.033 170.5 199.467 171.1 199.8 171.7L199.4 172L200.2 173.9L200.7 173.7L201.1 175.9H200.6V178.1H201.1C201.1 178.9 200.967 179.633 200.7 180.3L200.2 180.2L199.4 182.1L199.8 182.3L198.5 184.2L198.1 183.8C197.633 184.333 197.133 184.833 196.6 185.3L196.9 185.7C196.367 186.233 195.767 186.633 195.1 186.9L194.8 186.5L192.8 187.2L193 187.7C192.333 187.9 191.6 188.033 190.8 188.1V187.6H188.7V188.1C187.9 188.1 187.133 187.967 186.4 187.7L186.6 187.2L184.6 186.5L184.4 186.9C183.733 186.633 183.1 186.233 182.5 185.7L182.8 185.3L181.3 183.8L180.9 184.2C180.433 183.6 180.033 182.967 179.7 182.3L180.1 182.1L179.3 180.1L178.8 180.3L178.3 178.1H178.8V176H178.3L178.8 173.7L179.3 173.9L180.1 171.9L179.7 171.7L180.9 169.9L181.3 170.2L182.8 168.7L182.5 168.4C183.1 167.867 183.733 167.467 184.4 167.2L184.6 167.6L186.6 166.8L186.4 166.3L188.6 165.9V166.4H190.8V166ZM21.3 164C20.5 164 19.7667 164.133 19.1 164.4L19.2 164.9L17.2 165.7L17 165.2L15.2 166.4L15.5 166.8L14 168.3L13.6 168C13.0667 168.533 12.6333 169.133 12.3 169.8L12.8 170C12.4 170.667 12.1 171.333 11.9 172L11.4 171.8L11 174H11.5V176.2H11C11 177 11.1333 177.733 11.4 178.4L11.9 178.2C12.1 178.867 12.4 179.533 12.8 180.2L12.3 180.4C12.7 181.067 13.1333 181.667 13.6 182.2L14 181.9C14.4667 182.433 14.9667 182.933 15.5 183.4L15.2 183.8L17 185L17.3 184.5C17.9667 184.9 18.6333 185.167 19.3 185.3L19.1 185.8L21.3 186.2V185.7H23.5V186.2C24.2333 186.2 24.9667 186.067 25.7 185.8L25.5 185.3C26.1667 185.167 26.8333 184.9 27.5 184.5L27.7 185L29.6 183.8L29.3 183.4L30.8 181.9L31.2 182.2C31.6667 181.733 32.1 181.133 32.5 180.4L32 180.2C32.3333 179.533 32.6333 178.867 32.9 178.2L33.3 178.4C33.5667 177.733 33.7333 177 33.8 176.2H33.3V174L33.8 173.9C33.7333 173.167 33.5667 172.433 33.3 171.7L32.9 171.9L32 169.9L32.5 169.7C32.1 169.033 31.6667 168.433 31.2 167.9L30.8 168.2L29.3 166.7L29.6 166.3L27.7 165.1L27.5 165.6L25.5 164.8L25.7 164.3L23.5 163.9V164.4H21.3V164Z" fill="#CFCFCF" id="retromolaire_gebied" data-code="85816001" data-display="retromolaire gebied" data-system="http://snomed.info/sct"/>
<path d="M113 25.4998C106.352 26.494 106 26.9999 106 26.9999V28.9999C116.311 28.9246 118.647 28.7963 128.5 31.9999C137.518 34.8706 160.594 45.4999 167 51.9999C182.5 66.9999 195.983 97.2361 201 114C202.023 110.023 192.372 84.0788 187 73.9999C180.763 62.5 175 53 165 44C165 44 154.5 33.5 142 27.9999C137 25 124 23.855 113 25.4998Z M99.0752 25.4998C105.723 26.494 106 27 106 27V29C95.6894 28.9247 93.4283 28.7963 83.5752 31.9999C74.5569 34.8706 51.4809 45.4999 45.0752 51.9999C29.5752 66.9999 16.0923 97.2361 11.0752 114C10.0524 110.023 19.7033 84.0788 25.0752 73.9999C31.3127 62.5 37.0752 53 47.0752 44C47.0752 44 57.5752 33.5 70.0752 27.9999C75.0752 25 88.0752 23.855 99.0752 25.4998Z" fill="#B6B6B6" id="tandvlees" data-code="181224006" data-display="tandvlees" data-system="http://snomed.info/sct"/>
<path d="M170 227.5C169.5 232.5 166 238 163 244C158.5 250 154.5 255.5 150 259C135 269.5 108.5 271.5 95.5 266C106.5 261 158 239.5 169 211C170.166 208.191 170 227.5 170 227.5Z" fill="#E1DFDF" id="mondbodem" data-code="36360002" data-display="mondbodem" data-system="http://snomed.info/sct"/>

<path d="M169.24 254.4C170.307 256.333 170.807 258.4 170.74 260.6V261.6L170.64 264.6V266L171.44 265.8C173.598 265.355 175.64 264.47 177.44 263.2C180.14 260.9 182.64 258.1 183.04 254.5C183.24 251.7 183.44 248.9 181.04 246.5V246.4H180.94C178.84 244.6 176.54 244.3 173.94 244.4H170.74L168.24 244.3C166.894 243.923 165.466 243.958 164.14 244.4C162.94 244.8 161.84 245.5 160.84 246.5L160.24 247.1L159.54 247.7L158.84 248.3C158.373 248.833 158.007 249.333 157.74 249.8C157.473 250.267 157.273 250.833 157.14 251.5V252.2H157.74L160.74 252.4L161.94 252.5L163.14 252.6L164.24 252.7C166.039 252.754 167.781 253.346 169.24 254.4ZM169.24 254.4L169.14 254.3L168.84 254C168.107 253.266 167.307 252.8 166.44 252.6C165.44 252.3 163.94 252.2 161.14 252.2H160.34L158.84 252H157.14M169.24 254.4C170.373 256 170.973 257.833 171.04 259.9C171.173 261.9 171.14 263.8 170.94 265.6C170.74 266.933 170.307 268.2 169.64 269.4C169.64 269.666 169.507 269.933 169.24 270.2C167.704 273.158 165.091 275.413 161.94 276.5C159.549 277.059 157.078 277.194 154.64 276.9H154.04V273.3L153.94 271.1V269.7C153.94 267.4 153.94 266.3 153.64 265.4C153.44 264.4 153.04 263.6 152.04 261.7L150.54 260.5L150.14 260.2L150.24 259.8C150.94 257.4 151.94 254.8 153.74 252.8H153.94C154.94 252.133 156.04 251.866 157.24 252M147.24 260.1C148.173 259.967 149.24 260 150.44 260.2H150.54L150.64 260.3C151.435 260.836 152.112 261.53 152.628 262.338C153.144 263.147 153.489 264.053 153.64 265C154.44 270 154.84 276.2 151.74 280.8C150.207 282.8 148.207 284.133 145.74 284.8C143.54 285.1 141.54 285.2 139.34 284.1H139.24L138.24 283.1L137.44 282.6L137.34 282.5C136.04 280.7 136.34 278.8 136.44 277C136.573 274.066 136.34 271.2 135.74 268.4L135.54 267.5L135.34 266.8L135.24 266.4L135.54 266.2C137.007 265.133 138.607 264.267 140.34 263.6L140.84 263.4C142.107 262.933 143.273 262.266 144.34 261.4C145.34 260.733 146.34 260.3 147.34 260.1M43.0404 254.5C41.9071 256.433 41.4071 258.5 41.5404 260.7V261.7L41.6404 264.7V266.1L40.8404 265.9C38.7071 265.433 36.7071 264.566 34.8404 263.3C32.1404 261 29.6404 258.2 29.2404 254.6C29.0404 251.8 28.8404 249 31.2404 246.6V246.5H31.3404C33.4404 244.7 35.7404 244.4 38.3404 244.5H41.5404L44.0404 244.4C45.3864 244.023 46.8144 244.058 48.1404 244.5C49.2737 244.9 50.3737 245.6 51.4404 246.6L52.0404 247.2L52.7404 247.8L53.4404 248.4C53.9071 248.933 54.2737 249.433 54.5404 249.9C54.8071 250.366 55.0071 250.933 55.1404 251.6V252.3H54.5404L51.5404 252.5L50.3404 252.6L49.1404 252.7L48.0404 252.8C46.0404 252.9 44.6404 253.3 43.0404 254.5ZM43.0404 254.5L43.1404 254.4L43.4404 254.1C44.1737 253.367 44.9737 252.9 45.8404 252.7C46.7071 252.433 48.4737 252.3 51.1404 252.3H51.9404L53.4404 252.1H55.1404M43.0404 254.5C41.9114 256.116 41.2852 258.029 41.2404 260C41.1071 262 41.1404 263.9 41.3404 265.7C41.5404 267.033 41.9737 268.3 42.6404 269.5C42.6404 269.766 42.7737 270.033 43.0404 270.3C44.8404 273.6 47.1404 275.3 50.3404 276.6C52.8404 277.3 55.3404 277.1 57.6404 277H58.2404V273.4L58.3404 271.2V269.8C58.3404 267.5 58.3404 266.4 58.6404 265.5C58.8404 264.5 59.2404 263.7 60.2404 261.8L61.7404 260.6L62.1404 260.3L62.0404 259.9C61.3404 257.5 60.3404 254.9 58.5404 252.9H58.3404C57.3404 252.233 56.2404 251.967 55.0404 252.1M65.0404 260.2C64.0404 260.067 62.9737 260.1 61.8404 260.3H61.7404L61.6404 260.4C60.845 260.936 60.1683 261.63 59.6522 262.438C59.1362 263.247 58.7918 264.153 58.6404 265.1C57.8404 270.1 57.4404 276.3 60.5404 280.9C62.0071 282.9 64.0071 284.233 66.5404 284.9C68.7404 285.2 70.7404 285.3 72.9404 284.2H73.0404L74.0404 283.2L74.8404 282.7L74.9404 282.6C76.2404 280.8 75.9404 278.9 75.8404 277.1C75.7071 274.167 75.9404 271.3 76.5404 268.5L76.7404 267.6L76.9404 266.9L77.0404 266.5L76.7404 266.3C75.2737 265.233 73.6737 264.367 71.9404 263.7L71.4404 263.5C70.1737 263.033 69.0071 262.366 67.9404 261.5C66.9404 260.833 65.9404 260.4 64.9404 260.2M150.64 48.4998C152.24 47.8332 153.773 47.7332 155.24 48.1998H155.64V48.2998C159.24 49.8998 161.84 53.5998 163.44 56.9998C164.94 61.5998 163.84 66.4998 161.94 70.4998C161.222 71.8168 160.101 72.8685 158.74 73.4998L158.64 73.5998C156.64 73.9998 154.64 74.0998 152.64 72.9998C150.547 71.3105 148.984 69.0538 148.14 66.4998V66.2998C148.207 65.0998 148.54 63.9998 149.14 62.9998C149.74 61.6998 149.74 60.7998 149.74 59.1998V57.5998L149.64 54.9998L149.54 52.4998V50.9998C149.54 50.3998 149.607 49.9332 149.74 49.5998L150.44 48.5998H150.54M136.94 40.5998C138.94 39.6998 141.54 39.8998 143.64 40.7998L143.84 40.8998L143.94 40.9998C147.032 44.3651 148.807 48.732 148.94 53.2998V59.6998L149.04 60.9998V61.0998C148.895 62.5102 148.452 63.8737 147.74 65.0998L147.54 65.2998C146.34 65.9665 145.007 66.1998 143.54 65.9998C142.073 65.7998 140.74 65.4665 139.54 64.9998C136.94 63.8998 134.64 62.2998 133.14 59.3998L133.04 59.1998V57.7998L133.44 56.7998C133.84 55.4998 133.74 54.5998 133.74 53.0998V51.4998L133.64 48.9998C133.507 46.7998 133.507 45.3332 133.64 44.5998C133.64 43.6998 133.84 43.2998 134.24 42.5998V42.4998H134.34L135.04 41.7998L136.04 41.0998L136.84 40.5998M106.14 53.5998C106.189 55.0771 107.501 56.5196 108.24 57.7998L108.34 57.9998C108.94 58.4998 109.24 58.8998 110.04 59.0998C110.707 59.2998 111.973 59.4332 113.84 59.4998L120.04 59.7998L121.44 59.8998L125.14 59.9998H126.14C127.64 59.9998 129.14 60.0998 130.64 59.3998L130.84 59.2998L130.94 59.1998C132.74 56.9998 132.94 54.4998 132.94 51.7998V50.7998C133.007 49.1998 132.907 47.4998 132.64 45.6998L132.44 44.8998L131.94 42.1998L131.64 41.1998C131.14 38.4998 130.64 36.4998 128.64 34.2998L128.34 34.0998C123.14 30.0998 114.94 29.6998 110.14 34.6998L110.04 34.7998C107.14 38.5998 105.94 43.0998 106.14 47.5998M106.14 53.5998V47.5998ZM106.14 53.5998C106.091 55.0771 104.679 56.5196 103.94 57.7998L103.84 57.9998C103.24 58.4998 102.94 58.8998 102.14 59.0998C101.473 59.2998 100.207 59.4332 98.3404 59.4998L92.1404 59.7998L90.7404 59.8998L87.0404 59.9998H86.0404C84.5404 59.9998 83.0404 60.0998 81.5404 59.3998L81.3404 59.2998L81.2404 59.1998C79.4404 56.9998 79.2404 54.4998 79.2404 51.7998V50.7998C79.1737 49.1998 79.2737 47.4998 79.5404 45.6998L79.7404 44.8998L80.2404 42.1998L80.5404 41.1998C81.0404 38.4998 81.5404 36.4998 83.5404 34.2998L83.8404 34.0998C89.0404 30.0998 97.2404 29.6998 102.04 34.6998L102.14 34.7998C105.04 38.5998 106.34 43.0998 106.14 47.5998M75.3404 40.4998C73.1646 39.7013 70.7647 39.773 68.6404 40.6998L68.4404 40.7998L68.3404 40.8998C65.2488 44.2651 63.4737 48.632 63.3404 53.1998V59.5998L63.1404 60.9998V61.0998C63.3404 62.6998 63.7404 63.6998 64.4404 65.0998L64.6404 65.2998C65.8404 65.9665 67.1737 66.1998 68.6404 65.9998C70.1071 65.7998 71.4404 65.4665 72.6404 64.9998C75.2404 63.8998 77.5404 62.2998 79.0404 59.3998L79.1404 59.1998V57.7998L78.7404 56.7998C78.3404 55.4998 78.4404 54.5998 78.4404 53.0998L78.5404 48.9998C78.6737 46.7998 78.6737 45.3332 78.5404 44.5998C78.5404 43.6998 78.2404 43.2998 77.9404 42.5998V42.4998H77.8404L77.1404 41.7998L76.1404 41.0998L75.3404 40.5998M178.34 192.9C179.94 191.9 181.14 191.9 182.84 192H184.44L185.84 192.1C186.173 192.1 186.507 192.167 186.84 192.3C187.773 192.433 188.773 192.433 189.84 192.3H194.34C196.64 192.2 198.44 192.2 200.44 193.6L200.64 193.7C201.573 194.433 202.24 195.2 202.64 196C202.973 196.8 203.14 197.733 203.14 198.8V200.3C203.04 204.4 201.64 208 199.74 211.7L198.14 208.2C197.74 207.2 195.04 206.5 194.44 206.3C192.14 205.7 190.24 205.8 187.94 206.3C184.94 206.9 181.94 206.9 178.94 206.3H175.14L174.14 206.6L173.24 206.9V206.1C173.44 204.4 173.74 203.3 174.74 201.9C175.84 200.3 176.04 198.8 176.34 196.9C176.64 195.2 177.24 194.3 178.34 193V192.9ZM189.54 206.3C192.207 205.7 194.673 205.967 196.94 207.1L197.14 207.2L197.24 207.3C199.74 209.5 200.14 211.9 200.14 214.7C200.14 217.633 199.873 220.133 199.34 222.2C198.807 224.333 197.607 226.633 195.74 229.1H195.64C195.174 229.542 194.578 229.822 193.94 229.9H193.84L193.24 230L193.14 229.6V229.5L192.44 227.4C192.24 227 191.807 226.4 191.14 225.6C188.64 224.4 185.44 224.6 182.54 225.2L181.14 225.6H181.04C178.707 225.8 176.44 225.6 174.24 225C172.707 224.8 171.04 224.766 169.24 224.9L168.14 225.5V224.5C167.94 222.2 168.24 220.6 169.24 218.5C170.24 216.3 170.54 214.4 170.54 211.9C170.74 210.2 171.54 209.4 172.54 208.1L173.14 207.3V207.2H173.34C174.473 206.533 175.707 206.2 177.04 206.2C178.307 206.266 179.507 206.4 180.64 206.6C183.64 207.067 186.607 206.967 189.54 206.3ZM184.04 225.4C185.773 224.733 187.573 224.8 189.44 225.6C190.24 226 190.907 226.433 191.44 226.9C191.973 227.3 192.373 227.867 192.64 228.6L192.84 228.9V229C193.961 236.805 192.066 244.743 187.54 251.2C186.54 252.266 185.507 253.166 184.44 253.9L184.24 254H182.74V252.6C182.54 250 182.24 248.2 180.54 246.3L178.54 245C177.873 244.733 177.073 244.566 176.14 244.5H174.84L169.84 244.3H168.64L167.64 243.9C166.04 243.9 164.54 244 163.14 244.2L162.54 244.4L162.34 243.8C162.07 242.548 162.07 241.252 162.34 240C162.54 238.866 163.007 237.7 163.74 236.5C164.873 234.766 165.74 232.967 166.34 231.1C166.873 229.1 167.973 227.433 169.64 226.1V226H169.74C171.74 225 174.04 225.4 175.74 226C178.74 226.7 181.14 226.2 184.04 225.4ZM129.04 266.8C130.64 266.133 132.307 265.9 134.04 266.1H134.64L134.74 266.3C135.673 267.566 136.173 269.033 136.24 270.7C136.373 272.3 136.373 273.8 136.24 275.2L136.34 276.3C136.34 279.9 135.84 283.3 133.74 286.3C132.707 287.279 131.477 288.027 130.132 288.492C128.786 288.958 127.357 289.131 125.94 289H125.84C125.173 288.866 124.573 288.633 124.04 288.3C123.507 287.966 123.04 287.533 122.64 287C121.973 286.066 121.64 285.2 121.64 284.4C121.44 283.533 121.407 282.6 121.54 281.6L121.74 275.3V274C121.74 273 121.673 272.067 121.54 271.2L121.34 270.3V270L121.54 269.8L122.74 268.8L124.14 268.3L125.14 268L126.14 267.7L128.14 267.1L129.04 266.8ZM33.9404 193C32.3404 192 31.1404 192 29.4404 192.1H27.8404L26.4404 192.2C26.1071 192.2 25.7737 192.266 25.4404 192.4C24.5071 192.533 23.5071 192.533 22.4404 192.4H17.9404C15.6404 192.3 13.8404 192.3 11.8404 193.7L11.6404 193.8C10.7071 194.533 10.0404 195.3 9.64038 196.1C9.30705 196.9 9.14038 197.833 9.14038 198.9V200.4C9.24038 204.5 10.6404 208.1 12.5404 211.8L14.1404 208.3C14.5404 207.3 17.2404 206.6 17.8404 206.4C20.1404 205.8 22.0404 205.9 24.3404 206.4C27.3404 207 30.3404 207 33.3404 206.4H37.1404L38.1404 206.7L39.0404 207V206.2C39.0117 204.674 38.4849 203.199 37.5404 202C36.4404 200.4 36.2404 198.9 35.9404 197C35.6498 195.539 34.9571 194.188 33.9404 193.1V193ZM22.7404 206.4C20.0737 205.8 17.6071 206.066 15.3404 207.2L15.1404 207.3L15.0404 207.4C12.5404 209.6 12.1404 212 12.1404 214.8C12.1404 217.733 12.4071 220.233 12.9404 222.3C13.4737 224.433 14.6737 226.733 16.5404 229.2H16.6404C17.1068 229.642 17.7027 229.922 18.3404 230H18.4404L19.0404 230.1L19.1404 229.7V229.6L19.8404 227.5C20.0404 227.1 20.4737 226.5 21.1404 225.7C23.6404 224.5 26.8404 224.7 29.7404 225.3L31.1404 225.7H31.2404C33.5737 225.9 35.8404 225.7 38.0404 225.1C39.8404 224.8 41.1404 224.9 43.0404 225L44.1404 225.6V224.6C44.3404 222.3 44.0404 220.7 43.0404 218.6C42.0404 216.4 41.7404 214.5 41.7404 212C41.5404 210.3 40.7404 209.5 39.7404 208.2L39.1404 207.4V207.3H38.9404C37.8241 206.629 36.5427 206.282 35.2404 206.3C33.9737 206.367 32.7737 206.5 31.6404 206.7C28.6404 207.166 25.6737 207.066 22.7404 206.4ZM28.2404 225.5C26.4717 224.938 24.5627 225.009 22.8404 225.7C22.0404 226.1 21.3737 226.533 20.8404 227C20.3071 227.4 19.9071 227.966 19.6404 228.7L19.4404 229V229.1C18.3195 236.905 20.2147 244.843 24.7404 251.3C25.7404 252.367 26.7737 253.266 27.8404 254L28.0404 254.1H29.5404V252.7C29.7404 250.1 30.0404 248.3 31.7404 246.4C32.4737 245.733 33.1404 245.3 33.7404 245.1C34.4071 244.833 35.2071 244.667 36.1404 244.6H37.4404L42.4404 244.4H43.6404L44.6404 244C46.2404 244 47.7404 244.1 49.1404 244.3L49.7404 244.5L49.9404 243.9C50.2071 242.433 50.2071 241.167 49.9404 240.1C49.7404 238.967 49.2737 237.8 48.5404 236.6C47.4071 234.867 46.5404 233.066 45.9404 231.2C45.4737 229.2 44.3737 227.533 42.6404 226.2V226.1H42.5404C40.5404 225.1 38.2404 225.5 36.5404 226.1C33.5404 226.8 31.1404 226.3 28.2404 225.5ZM83.2404 266.9C81.6404 266.233 79.9737 266 78.2404 266.2H77.6404L77.5404 266.4C76.6159 267.686 76.0939 269.217 76.0404 270.8C75.9071 272.4 75.9071 273.9 76.0404 275.3L75.9404 276.4C75.9404 280 76.4404 283.4 78.5404 286.4C81.0404 288.7 83.5404 289.2 86.3404 289.1H86.4404C87.1071 288.966 87.7071 288.733 88.2404 288.4C88.7737 288.066 89.2404 287.633 89.6404 287.1C90.3071 286.166 90.6404 285.3 90.6404 284.5C90.8404 283.633 90.8737 282.7 90.7404 281.7L90.5404 275.4V274C90.5404 273 90.6071 272.067 90.7404 271.2L90.9404 270.3V270L90.7404 269.8L89.5404 268.8L88.1404 268.3L87.1404 268L86.1404 267.7L84.1404 267.1L83.2404 266.9ZM199.84 119C200.907 120.066 201.573 121.4 201.84 123C202.107 124.533 202.24 125.933 202.24 127.2C202.14 130.4 202.64 137.3 201.14 138.2C199.64 139.1 197.14 138.9 197.14 138.9C194.14 139.1 190.54 138.1 190.14 138.1C188.007 138.1 185.907 138.366 183.84 138.9C181.707 139.433 179.64 139.2 177.64 138.2C175.978 137.138 174.768 135.5 174.24 133.6V133.5C174.107 132.5 174.073 131.533 174.14 130.6V130.1H179.04L180.04 129.6C181.373 129.067 182.707 128.8 184.04 128.8L187.74 128.9C191.24 129 193.84 128.5 196.54 126.4C198.14 124.3 199.24 123.9 199.64 121.1V118.6L199.84 119ZM185.24 88.9998C187.64 89.5998 189.04 91.1998 190.24 92.7998L190.54 93.1998C192.54 96.8998 193.54 99.7998 193.54 104V105.2C193.607 107.866 193.007 110.433 191.74 112.9L191.64 113C190.973 113.733 190.207 114.266 189.34 114.6C188.607 114.933 187.707 115.133 186.64 115.2L185.14 115.1C184.873 115.1 184.54 115.033 184.14 114.9H183.54C180.673 114.367 177.94 114.7 175.34 115.9H175.14C173.24 116.1 171.14 116.4 169.14 115.5L169.04 115.4C167.707 114.4 166.84 113.133 166.44 111.6V111.4L166.24 109.2C166.14 106.8 165.24 105.2 163.64 103.2C163.173 102.133 163.007 101.1 163.14 100.1V97.2998L163.94 97.5998L165.14 97.9998H167.34L169.64 97.0998C172.34 95.8998 174.84 95.6998 177.64 95.4998H178.24C179.707 95.3665 181.04 94.9332 182.24 94.1998C182.573 93.9332 182.773 93.6998 182.84 93.4998L183.34 92.6998L183.74 91.6998C184.14 91.0332 184.407 90.2998 184.54 89.4998L184.64 88.8998L185.24 88.9998ZM164.44 60.9998C165.773 60.9332 166.907 61.0332 167.84 61.2998C168.773 61.5665 169.773 62.0332 170.84 62.6998L171.84 63.1998L171.94 63.2998C176.04 66.7998 177.14 71.2998 177.14 75.8998C177.14 78.6998 176.54 81.0998 173.94 83.1998C172.615 84.1078 171.047 84.5956 169.44 84.5998H161.84L159.54 84.7998H158.14L157.94 84.8998L157.74 84.7998C156.873 84.1332 156.173 83.3998 155.64 82.5998L154.74 81.5998V81.4998L151.94 77.0998C151.44 76.0998 151.34 75.4998 151.14 74.2998V74.0998L151.54 73.0998L151.84 72.3998L152.54 72.7998L153.24 73.2998C154.773 73.8332 156.473 73.9665 158.34 73.6998C160.266 72.9814 161.842 71.549 162.74 69.6998C163.74 66.9998 163.74 64.2998 163.84 61.3998V60.9998H164.44ZM194.04 104.7C197.04 107.366 198.607 110.633 198.74 114.5V117L198.84 118C198.973 120.4 198.34 122.6 196.94 124.6C194.94 126.4 192.94 127.8 190.14 128L185.14 127.9C182.906 127.733 180.667 128.146 178.64 129.1C177.573 129.5 176.507 129.633 175.44 129.5H175.14C173.14 128.3 172.14 126.7 171.14 125L170.84 124.3C169.444 122.202 168.745 119.718 168.84 117.2V116.6H171.84L173.24 116.7H174.44L175.54 116.1C177.06 115.478 178.7 115.205 180.34 115.3L182.74 115.4L184.94 115.6H187.94L190.34 114.7C192.54 112 192.84 108.7 193.04 105.1V104L194.04 104.7ZM177.44 72.6998C180.107 73.6998 182.107 75.4332 183.44 77.8998L183.64 78.2998C184.107 79.2998 184.44 80.2998 184.64 81.2998L185.14 82.3998V82.5998L185.34 86.3998V87.3998C185.34 88.6665 185.173 89.8332 184.84 90.8998C184.44 91.8998 183.84 92.8998 183.04 93.8998C181.04 95.5998 179.34 95.6998 177.04 95.6998C174.14 95.7998 172.04 96.2998 169.24 97.4998C168.573 97.7665 167.907 97.9665 167.24 98.0998L165.04 97.9998H164.94L164.84 97.8998C162.84 96.4998 161.64 94.3998 160.54 92.5998L157.84 88.7998C157.307 87.7998 156.973 86.7998 156.84 85.7998V85.2998L157.34 85.0998C161.007 84.4332 164.673 84.1998 168.34 84.3998C169.607 84.3998 170.607 84.3332 171.34 84.1998C172.207 83.9998 173.107 83.5665 174.04 82.8998C175.056 81.6188 175.743 80.108 176.04 78.4998C176.373 76.7665 176.573 74.9998 176.64 73.1998V72.4998L177.44 72.6998ZM12.5404 119C11.4737 120.066 10.8071 121.4 10.5404 123C10.2737 124.533 10.1404 125.933 10.1404 127.2C10.2404 130.4 9.74038 137.3 11.2404 138.2C12.7404 139.1 15.2404 138.9 15.2404 138.9C18.2404 139.1 21.8404 138.1 22.2404 138.1C24.3737 138.1 26.4737 138.366 28.5404 138.9C30.6737 139.433 32.7404 139.2 34.7404 138.2C36.4019 137.138 37.6127 135.5 38.1404 133.6V133.5C38.2737 132.5 38.3071 131.533 38.2404 130.6V130.1H33.3404L32.3404 129.6C31.0071 129.067 29.6737 128.8 28.3404 128.8L24.6404 128.9C21.1404 129 18.5404 128.5 15.8404 126.4C14.1404 124.3 13.1404 123.9 12.7404 121.1V118.6L12.5404 119ZM27.0404 88.9998C24.7404 89.5998 23.3404 91.1998 22.0404 92.7998L21.8404 93.1998C19.8804 96.4615 18.8434 100.195 18.8404 104V105.2C18.7071 107.866 19.3071 110.433 20.6404 112.9L20.7404 113C21.4737 113.733 22.2071 114.266 22.9404 114.6C23.6737 114.933 24.6071 115.133 25.7404 115.2L27.2404 115.1C27.5071 115.1 27.8404 115.033 28.2404 114.9H28.8404C31.7071 114.367 34.4404 114.7 37.0404 115.9H37.2404C39.1404 116.1 41.2404 116.4 43.2404 115.5L43.3404 115.4C44.8404 114.4 45.4404 113.2 45.9404 111.6V111.4L46.1404 109.2C46.2404 106.8 47.1404 105.2 48.7404 103.2C49.3404 102 49.2404 101.2 49.2404 100.1V97.2998L48.4404 97.5998L47.2404 97.9998H45.1404L42.8404 97.0998C40.2968 96.0724 37.5835 95.5297 34.8404 95.4998H34.1404C32.7231 95.3885 31.3523 94.943 30.1404 94.1998C29.8071 93.9332 29.6071 93.6998 29.5404 93.4998L29.0404 92.6998L28.6404 91.6998C28.2404 91.0332 27.9737 90.2998 27.8404 89.4998L27.7404 88.8998L27.0404 88.9998ZM47.9404 60.9998C46.6071 60.9332 45.4737 61.0332 44.5404 61.2998C43.6071 61.5665 42.6071 62.0332 41.5404 62.6998L40.5404 63.1998L40.4404 63.2998C36.3404 66.7998 35.2404 71.2998 35.2404 75.8998C35.2404 78.6998 35.8404 81.0998 38.4404 83.1998C39.8404 84.1332 41.3404 84.5998 42.9404 84.5998H50.5404L52.8404 84.7998H54.2404L54.4404 84.8998L54.6404 84.7998C55.5071 84.1332 56.2071 83.3998 56.7404 82.5998L57.6404 81.5998V81.4998L60.4404 77.0998C60.9404 76.0998 61.0404 75.4998 61.2404 74.2998V74.0998L60.8404 73.0998L60.5404 72.3998L59.8404 72.7998L59.1404 73.2998C57.6071 73.8332 55.9071 73.9665 54.0404 73.6998C52.1143 72.9814 50.5386 71.549 49.6404 69.6998C48.6404 66.9998 48.6404 64.2998 48.5404 61.3998V60.9998H47.9404ZM18.3404 104.7C16.8962 105.897 15.7284 107.393 14.9171 109.085C14.1058 110.777 13.6703 112.624 13.6404 114.5V117L13.5404 118C13.4071 120.4 14.0404 122.6 15.4404 124.6C17.4404 126.4 19.4404 127.8 22.2404 128L27.2404 127.9C29.7404 127.8 31.5404 128 33.7404 129.1C34.9404 129.5 35.7404 129.6 36.9404 129.5H37.2404C39.2404 128.3 40.2404 126.7 41.2404 125L41.5404 124.3C42.9404 122.167 43.6071 119.8 43.5404 117.2V116.6H40.5404L39.1404 116.7H37.9404L36.8404 116.1C35.3202 115.478 33.6801 115.205 32.0404 115.3L29.6404 115.4L27.4404 115.6H24.4404L22.0404 114.7C19.8404 112 19.5404 108.7 19.3404 105.1V104L18.3404 104.7ZM34.9404 72.6998C32.2737 73.6998 30.2737 75.4332 28.9404 77.8998L28.7404 78.2998C28.3404 79.2998 28.0071 80.2998 27.7404 81.2998L27.2404 82.3998V82.5998L27.0404 86.3998V87.3998C27.0404 88.6665 27.2071 89.8332 27.5404 90.8998C27.9404 91.8998 28.5404 92.8998 29.3404 93.8998C31.3404 95.5998 33.0404 95.6998 35.3404 95.6998C38.2404 95.7998 40.3404 96.2998 43.0404 97.4998L45.1404 98.0998L47.3404 97.9998H47.4404L47.5404 97.8998C49.5404 96.4998 50.6404 94.3998 51.8404 92.5998L54.5404 88.7998C55.0737 87.7998 55.4071 86.7998 55.5404 85.7998V85.2998L55.0404 85.0998C51.3737 84.4332 47.7071 84.1998 44.0404 84.3998C42.7737 84.3998 41.7737 84.3332 41.0404 84.1998C40.1071 83.9998 39.2071 83.5665 38.3404 82.8998C37.324 81.6188 36.6373 80.108 36.3404 78.4998C36.0071 76.7665 35.8071 74.9998 35.7404 73.1998V72.4998L34.9404 72.6998ZM61.7404 48.4998C61.0177 48.1354 60.2288 47.921 59.4211 47.8694C58.6133 47.8179 57.8035 47.9303 57.0404 48.1998H56.7404V48.2998C53.1404 49.8998 50.5404 53.5998 48.9404 56.9998C47.4404 61.5998 48.4404 66.4998 50.4404 70.4998C51.1581 71.8168 52.2799 72.8685 53.6404 73.4998L53.7404 73.5998C55.7404 73.9998 57.7404 74.0998 59.7404 72.9998C61.6404 71.2998 63.4404 69.0998 64.2404 66.4998V66.2998C64.1874 65.1337 63.8437 63.9992 63.2404 62.9998C62.7343 61.8008 62.5283 60.4964 62.6404 59.1998V57.5998L62.7404 54.9998L62.8404 50.9998C62.8404 50.3998 62.7737 49.9332 62.6404 49.5998L61.9404 48.5998L61.7404 48.4998Z" fill="white" id="dummy_4" data-code="dummy_4" data-display="dummy_4" data-system="http://templates.tiro.health/templates/1bac7fe159c94f07998086ecd0d54e42/custom-codes"/>
<path d="M115.14 268L117.84 268.1C118.24 268.167 118.673 268.333 119.14 268.6L119.64 268.9L119.74 269.1C120.74 270.633 121.207 272.5 121.14 274.7C121.073 276.9 120.94 278.8 120.74 280.4C120.34 282.9 119.54 286 117.54 287.8C115.14 289.3 112.84 289.2 110.54 288.5C109.09 288.047 107.886 287.234 107 286L106.79 270.25L107.14 269.4L107.24 269.3C108.24 268.5 109.373 268.1 110.64 268.1L115.14 268Z" fill="white" id="dummy_5" data-code="dummy_5" data-display="dummy_5" data-system="http://templates.tiro.health/templates/1bac7fe159c94f07998086ecd0d54e42/custom-codes"/>
<path d="M105 286C104.114 287.234 103.19 288.047 101.74 288.5C99.4404 289.2 97.1404 289.3 94.7404 287.8C92.7404 286 91.9404 282.9 91.5404 280.4C91.3404 278.733 91.2071 276.833 91.1404 274.7C91.0465 272.736 91.5334 270.788 92.5404 269.1L92.6404 268.9L93.1404 268.6L94.4404 268.1L97.1404 268L101.64 268.1C102.907 268.1 104.04 268.5 105.04 269.3L105.14 269.4L105.49 270.25L105 286Z" fill="white" id="dummy_6" data-code="dummy_6" data-display="dummy_6" data-system="http://templates.tiro.health/templates/1bac7fe159c94f07998086ecd0d54e42/custom-codes"/>
<path d="M169.24 254.4C170.307 256.333 170.807 258.4 170.74 260.6V261.6L170.64 264.6V266L171.44 265.8C173.598 265.355 175.64 264.47 177.44 263.2C180.14 260.9 182.64 258.1 183.04 254.5C183.24 251.7 183.44 248.9 181.04 246.5V246.4H180.94C178.84 244.6 176.54 244.3 173.94 244.4H170.74L168.24 244.3C166.894 243.923 165.466 243.958 164.14 244.4C162.94 244.8 161.84 245.5 160.84 246.5L160.24 247.1L159.54 247.7L158.84 248.3C158.373 248.833 158.007 249.333 157.74 249.8C157.473 250.267 157.273 250.833 157.14 251.5V252.2H157.74L160.74 252.4L161.94 252.5L163.14 252.6L164.24 252.7C166.039 252.754 167.781 253.346 169.24 254.4ZM169.24 254.4L169.14 254.3L168.84 254C168.107 253.266 167.307 252.8 166.44 252.6C165.44 252.3 163.94 252.2 161.14 252.2H160.34L158.84 252H157.14M169.24 254.4C170.373 256 170.973 257.833 171.04 259.9C171.173 261.9 171.14 263.8 170.94 265.6C170.74 266.933 170.307 268.2 169.64 269.4C169.64 269.666 169.507 269.933 169.24 270.2C167.704 273.158 165.091 275.413 161.94 276.5C159.549 277.059 157.078 277.194 154.64 276.9H154.04V273.3L153.94 271.1V269.7C153.94 267.4 153.94 266.3 153.64 265.4C153.44 264.4 153.04 263.6 152.04 261.7L150.54 260.5L150.14 260.2L150.24 259.8C150.94 257.4 151.94 254.8 153.74 252.8H153.94C154.94 252.133 156.04 251.866 157.24 252M147.24 260.1C148.173 259.967 149.24 260 150.44 260.2H150.54L150.64 260.3C151.435 260.836 152.112 261.53 152.628 262.338C153.144 263.147 153.489 264.053 153.64 265C154.44 270 154.84 276.2 151.74 280.8C150.207 282.8 148.207 284.133 145.74 284.8C143.54 285.1 141.54 285.2 139.34 284.1H139.24L138.24 283.1L137.44 282.6L137.34 282.5C136.04 280.7 136.34 278.8 136.44 277C136.573 274.066 136.34 271.2 135.74 268.4L135.54 267.5L135.34 266.8L135.24 266.4L135.54 266.2C137.007 265.133 138.607 264.267 140.34 263.6L140.84 263.4C142.107 262.933 143.273 262.266 144.34 261.4C145.34 260.733 146.34 260.3 147.34 260.1M43.0404 254.5C41.9071 256.433 41.4071 258.5 41.5404 260.7V261.7L41.6404 264.7V266.1L40.8404 265.9C38.7071 265.433 36.7071 264.566 34.8404 263.3C32.1404 261 29.6404 258.2 29.2404 254.6C29.0404 251.8 28.8404 249 31.2404 246.6V246.5H31.3404C33.4404 244.7 35.7404 244.4 38.3404 244.5H41.5404L44.0404 244.4C45.3864 244.023 46.8144 244.058 48.1404 244.5C49.2737 244.9 50.3737 245.6 51.4404 246.6L52.0404 247.2L52.7404 247.8L53.4404 248.4C53.9071 248.933 54.2737 249.433 54.5404 249.9C54.8071 250.366 55.0071 250.933 55.1404 251.6V252.3H54.5404L51.5404 252.5L50.3404 252.6L49.1404 252.7L48.0404 252.8C46.0404 252.9 44.6404 253.3 43.0404 254.5ZM43.0404 254.5L43.1404 254.4L43.4404 254.1C44.1737 253.367 44.9737 252.9 45.8404 252.7C46.7071 252.433 48.4737 252.3 51.1404 252.3H51.9404L53.4404 252.1H55.1404M43.0404 254.5C41.9114 256.116 41.2852 258.029 41.2404 260C41.1071 262 41.1404 263.9 41.3404 265.7C41.5404 267.033 41.9737 268.3 42.6404 269.5C42.6404 269.766 42.7737 270.033 43.0404 270.3C44.8404 273.6 47.1404 275.3 50.3404 276.6C52.8404 277.3 55.3404 277.1 57.6404 277H58.2404V273.4L58.3404 271.2V269.8C58.3404 267.5 58.3404 266.4 58.6404 265.5C58.8404 264.5 59.2404 263.7 60.2404 261.8L61.7404 260.6L62.1404 260.3L62.0404 259.9C61.3404 257.5 60.3404 254.9 58.5404 252.9H58.3404C57.3404 252.233 56.2404 251.967 55.0404 252.1M65.0404 260.2C64.0404 260.067 62.9737 260.1 61.8404 260.3H61.7404L61.6404 260.4C60.845 260.936 60.1683 261.63 59.6522 262.438C59.1362 263.247 58.7918 264.153 58.6404 265.1C57.8404 270.1 57.4404 276.3 60.5404 280.9C62.0071 282.9 64.0071 284.233 66.5404 284.9C68.7404 285.2 70.7404 285.3 72.9404 284.2H73.0404L74.0404 283.2L74.8404 282.7L74.9404 282.6C76.2404 280.8 75.9404 278.9 75.8404 277.1C75.7071 274.167 75.9404 271.3 76.5404 268.5L76.7404 267.6L76.9404 266.9L77.0404 266.5L76.7404 266.3C75.2737 265.233 73.6737 264.367 71.9404 263.7L71.4404 263.5C70.1737 263.033 69.0071 262.366 67.9404 261.5C66.9404 260.833 65.9404 260.4 64.9404 260.2M150.64 48.4998C152.24 47.8332 153.773 47.7332 155.24 48.1998H155.64V48.2998C159.24 49.8998 161.84 53.5998 163.44 56.9998C164.94 61.5998 163.84 66.4998 161.94 70.4998C161.222 71.8168 160.101 72.8685 158.74 73.4998L158.64 73.5998C156.64 73.9998 154.64 74.0998 152.64 72.9998C150.547 71.3105 148.984 69.0538 148.14 66.4998V66.2998C148.207 65.0998 148.54 63.9998 149.14 62.9998C149.74 61.6998 149.74 60.7998 149.74 59.1998V57.5998L149.64 54.9998L149.54 52.4998V50.9998C149.54 50.3998 149.607 49.9332 149.74 49.5998L150.44 48.5998H150.54M136.94 40.5998C138.94 39.6998 141.54 39.8998 143.64 40.7998L143.84 40.8998L143.94 40.9998C147.032 44.3651 148.807 48.732 148.94 53.2998V59.6998L149.04 60.9998V61.0998C148.895 62.5102 148.452 63.8737 147.74 65.0998L147.54 65.2998C146.34 65.9665 145.007 66.1998 143.54 65.9998C142.073 65.7998 140.74 65.4665 139.54 64.9998C136.94 63.8998 134.64 62.2998 133.14 59.3998L133.04 59.1998V57.7998L133.44 56.7998C133.84 55.4998 133.74 54.5998 133.74 53.0998V51.4998L133.64 48.9998C133.507 46.7998 133.507 45.3332 133.64 44.5998C133.64 43.6998 133.84 43.2998 134.24 42.5998V42.4998H134.34L135.04 41.7998L136.04 41.0998L136.84 40.5998M106.14 53.5998C106.189 55.0771 107.501 56.5196 108.24 57.7998L108.34 57.9998C108.94 58.4998 109.24 58.8998 110.04 59.0998C110.707 59.2998 111.973 59.4332 113.84 59.4998L120.04 59.7998L121.44 59.8998L125.14 59.9998H126.14C127.64 59.9998 129.14 60.0998 130.64 59.3998L130.84 59.2998L130.94 59.1998C132.74 56.9998 132.94 54.4998 132.94 51.7998V50.7998C133.007 49.1998 132.907 47.4998 132.64 45.6998L132.44 44.8998L131.94 42.1998L131.64 41.1998C131.14 38.4998 130.64 36.4998 128.64 34.2998L128.34 34.0998C123.14 30.0998 114.94 29.6998 110.14 34.6998L110.04 34.7998C107.14 38.5998 105.94 43.0998 106.14 47.5998M106.14 53.5998V47.5998M106.14 53.5998C106.091 55.0771 104.679 56.5196 103.94 57.7998L103.84 57.9998C103.24 58.4998 102.94 58.8998 102.14 59.0998C101.473 59.2998 100.207 59.4332 98.3404 59.4998L92.1404 59.7998L90.7404 59.8998L87.0404 59.9998H86.0404C84.5404 59.9998 83.0404 60.0998 81.5404 59.3998L81.3404 59.2998L81.2404 59.1998C79.4404 56.9998 79.2404 54.4998 79.2404 51.7998V50.7998C79.1737 49.1998 79.2737 47.4998 79.5404 45.6998L79.7404 44.8998L80.2404 42.1998L80.5404 41.1998C81.0404 38.4998 81.5404 36.4998 83.5404 34.2998L83.8404 34.0998C89.0404 30.0998 97.2404 29.6998 102.04 34.6998L102.14 34.7998C105.04 38.5998 106.34 43.0998 106.14 47.5998M75.3404 40.4998C73.1646 39.7013 70.7647 39.773 68.6404 40.6998L68.4404 40.7998L68.3404 40.8998C65.2488 44.2651 63.4737 48.632 63.3404 53.1998V59.5998L63.1404 60.9998V61.0998C63.3404 62.6998 63.7404 63.6998 64.4404 65.0998L64.6404 65.2998C65.8404 65.9665 67.1737 66.1998 68.6404 65.9998C70.1071 65.7998 71.4404 65.4665 72.6404 64.9998C75.2404 63.8998 77.5404 62.2998 79.0404 59.3998L79.1404 59.1998V57.7998L78.7404 56.7998C78.3404 55.4998 78.4404 54.5998 78.4404 53.0998L78.5404 48.9998C78.6737 46.7998 78.6737 45.3332 78.5404 44.5998C78.5404 43.6998 78.2404 43.2998 77.9404 42.5998V42.4998H77.8404L77.1404 41.7998L76.1404 41.0998L75.3404 40.5998M115.14 268L117.84 268.1C118.24 268.167 118.673 268.333 119.14 268.6L119.64 268.9L119.74 269.1C120.74 270.633 121.207 272.5 121.14 274.7C121.073 276.9 120.94 278.8 120.74 280.4C120.34 282.9 119.54 286 117.54 287.8C115.14 289.3 112.84 289.2 110.54 288.5C109.09 288.047 107.886 287.234 107 286L106.79 270.25L107.14 269.4L107.24 269.3C108.24 268.5 109.373 268.1 110.64 268.1L115.14 268ZM105 286C104.114 287.234 103.19 288.047 101.74 288.5C99.4404 289.2 97.1404 289.3 94.7404 287.8C92.7404 286 91.9404 282.9 91.5404 280.4C91.3404 278.733 91.2071 276.833 91.1404 274.7C91.0465 272.736 91.5334 270.788 92.5404 269.1L92.6404 268.9L93.1404 268.6L94.4404 268.1L97.1404 268L101.64 268.1C102.907 268.1 104.04 268.5 105.04 269.3L105.14 269.4L105.49 270.25L105 286ZM178.34 192.9C179.94 191.9 181.14 191.9 182.84 192H184.44L185.84 192.1C186.173 192.1 186.507 192.167 186.84 192.3C187.773 192.433 188.773 192.433 189.84 192.3H194.34C196.64 192.2 198.44 192.2 200.44 193.6L200.64 193.7C201.573 194.433 202.24 195.2 202.64 196C202.973 196.8 203.14 197.733 203.14 198.8V200.3C203.04 204.4 201.64 208 199.74 211.7L198.14 208.2C197.74 207.2 195.04 206.5 194.44 206.3C192.14 205.7 190.24 205.8 187.94 206.3C184.94 206.9 181.94 206.9 178.94 206.3H175.14L174.14 206.6L173.24 206.9V206.1C173.44 204.4 173.74 203.3 174.74 201.9C175.84 200.3 176.04 198.8 176.34 196.9C176.64 195.2 177.24 194.3 178.34 193V192.9ZM189.54 206.3C192.207 205.7 194.673 205.967 196.94 207.1L197.14 207.2L197.24 207.3C199.74 209.5 200.14 211.9 200.14 214.7C200.14 217.633 199.873 220.133 199.34 222.2C198.807 224.333 197.607 226.633 195.74 229.1H195.64C195.174 229.542 194.578 229.822 193.94 229.9H193.84L193.24 230L193.14 229.6V229.5L192.44 227.4C192.24 227 191.807 226.4 191.14 225.6C188.64 224.4 185.44 224.6 182.54 225.2L181.14 225.6H181.04C178.707 225.8 176.44 225.6 174.24 225C172.707 224.8 171.04 224.766 169.24 224.9L168.14 225.5V224.5C167.94 222.2 168.24 220.6 169.24 218.5C170.24 216.3 170.54 214.4 170.54 211.9C170.74 210.2 171.54 209.4 172.54 208.1L173.14 207.3V207.2H173.34C174.473 206.533 175.707 206.2 177.04 206.2C178.307 206.266 179.507 206.4 180.64 206.6C183.64 207.067 186.607 206.967 189.54 206.3ZM184.04 225.4C185.773 224.733 187.573 224.8 189.44 225.6C190.24 226 190.907 226.433 191.44 226.9C191.973 227.3 192.373 227.867 192.64 228.6L192.84 228.9V229C193.961 236.805 192.066 244.743 187.54 251.2C186.54 252.266 185.507 253.166 184.44 253.9L184.24 254H182.74V252.6C182.54 250 182.24 248.2 180.54 246.3L178.54 245C177.873 244.733 177.073 244.566 176.14 244.5H174.84L169.84 244.3H168.64L167.64 243.9C166.04 243.9 164.54 244 163.14 244.2L162.54 244.4L162.34 243.8C162.07 242.548 162.07 241.252 162.34 240C162.54 238.866 163.007 237.7 163.74 236.5C164.873 234.766 165.74 232.967 166.34 231.1C166.873 229.1 167.973 227.433 169.64 226.1V226H169.74C171.74 225 174.04 225.4 175.74 226C178.74 226.7 181.14 226.2 184.04 225.4ZM129.04 266.8C130.64 266.133 132.307 265.9 134.04 266.1H134.64L134.74 266.3C135.673 267.566 136.173 269.033 136.24 270.7C136.373 272.3 136.373 273.8 136.24 275.2L136.34 276.3C136.34 279.9 135.84 283.3 133.74 286.3C132.707 287.279 131.477 288.027 130.132 288.492C128.786 288.958 127.357 289.131 125.94 289H125.84C125.173 288.866 124.573 288.633 124.04 288.3C123.507 287.966 123.04 287.533 122.64 287C121.973 286.066 121.64 285.2 121.64 284.4C121.44 283.533 121.407 282.6 121.54 281.6L121.74 275.3V274C121.74 273 121.673 272.067 121.54 271.2L121.34 270.3V270L121.54 269.8L122.74 268.8L124.14 268.3L125.14 268L126.14 267.7L128.14 267.1L129.04 266.8ZM33.9404 193C32.3404 192 31.1404 192 29.4404 192.1H27.8404L26.4404 192.2C26.1071 192.2 25.7737 192.266 25.4404 192.4C24.5071 192.533 23.5071 192.533 22.4404 192.4H17.9404C15.6404 192.3 13.8404 192.3 11.8404 193.7L11.6404 193.8C10.7071 194.533 10.0404 195.3 9.64038 196.1C9.30705 196.9 9.14038 197.833 9.14038 198.9V200.4C9.24038 204.5 10.6404 208.1 12.5404 211.8L14.1404 208.3C14.5404 207.3 17.2404 206.6 17.8404 206.4C20.1404 205.8 22.0404 205.9 24.3404 206.4C27.3404 207 30.3404 207 33.3404 206.4H37.1404L38.1404 206.7L39.0404 207V206.2C39.0117 204.674 38.4849 203.199 37.5404 202C36.4404 200.4 36.2404 198.9 35.9404 197C35.6498 195.539 34.9571 194.188 33.9404 193.1V193ZM22.7404 206.4C20.0737 205.8 17.6071 206.066 15.3404 207.2L15.1404 207.3L15.0404 207.4C12.5404 209.6 12.1404 212 12.1404 214.8C12.1404 217.733 12.4071 220.233 12.9404 222.3C13.4737 224.433 14.6737 226.733 16.5404 229.2H16.6404C17.1068 229.642 17.7027 229.922 18.3404 230H18.4404L19.0404 230.1L19.1404 229.7V229.6L19.8404 227.5C20.0404 227.1 20.4737 226.5 21.1404 225.7C23.6404 224.5 26.8404 224.7 29.7404 225.3L31.1404 225.7H31.2404C33.5737 225.9 35.8404 225.7 38.0404 225.1C39.8404 224.8 41.1404 224.9 43.0404 225L44.1404 225.6V224.6C44.3404 222.3 44.0404 220.7 43.0404 218.6C42.0404 216.4 41.7404 214.5 41.7404 212C41.5404 210.3 40.7404 209.5 39.7404 208.2L39.1404 207.4V207.3H38.9404C37.8241 206.629 36.5427 206.282 35.2404 206.3C33.9737 206.367 32.7737 206.5 31.6404 206.7C28.6404 207.166 25.6737 207.066 22.7404 206.4ZM28.2404 225.5C26.4717 224.938 24.5627 225.009 22.8404 225.7C22.0404 226.1 21.3737 226.533 20.8404 227C20.3071 227.4 19.9071 227.966 19.6404 228.7L19.4404 229V229.1C18.3195 236.905 20.2147 244.843 24.7404 251.3C25.7404 252.367 26.7737 253.266 27.8404 254L28.0404 254.1H29.5404V252.7C29.7404 250.1 30.0404 248.3 31.7404 246.4C32.4737 245.733 33.1404 245.3 33.7404 245.1C34.4071 244.833 35.2071 244.667 36.1404 244.6H37.4404L42.4404 244.4H43.6404L44.6404 244C46.2404 244 47.7404 244.1 49.1404 244.3L49.7404 244.5L49.9404 243.9C50.2071 242.433 50.2071 241.167 49.9404 240.1C49.7404 238.967 49.2737 237.8 48.5404 236.6C47.4071 234.867 46.5404 233.066 45.9404 231.2C45.4737 229.2 44.3737 227.533 42.6404 226.2V226.1H42.5404C40.5404 225.1 38.2404 225.5 36.5404 226.1C33.5404 226.8 31.1404 226.3 28.2404 225.5ZM83.2404 266.9C81.6404 266.233 79.9737 266 78.2404 266.2H77.6404L77.5404 266.4C76.6159 267.686 76.0939 269.217 76.0404 270.8C75.9071 272.4 75.9071 273.9 76.0404 275.3L75.9404 276.4C75.9404 280 76.4404 283.4 78.5404 286.4C81.0404 288.7 83.5404 289.2 86.3404 289.1H86.4404C87.1071 288.966 87.7071 288.733 88.2404 288.4C88.7737 288.066 89.2404 287.633 89.6404 287.1C90.3071 286.166 90.6404 285.3 90.6404 284.5C90.8404 283.633 90.8737 282.7 90.7404 281.7L90.5404 275.4V274C90.5404 273 90.6071 272.067 90.7404 271.2L90.9404 270.3V270L90.7404 269.8L89.5404 268.8L88.1404 268.3L87.1404 268L86.1404 267.7L84.1404 267.1L83.2404 266.9ZM199.84 119C200.907 120.066 201.573 121.4 201.84 123C202.107 124.533 202.24 125.933 202.24 127.2C202.14 130.4 202.64 137.3 201.14 138.2C199.64 139.1 197.14 138.9 197.14 138.9C194.14 139.1 190.54 138.1 190.14 138.1C188.007 138.1 185.907 138.366 183.84 138.9C181.707 139.433 179.64 139.2 177.64 138.2C175.978 137.138 174.768 135.5 174.24 133.6V133.5C174.107 132.5 174.073 131.533 174.14 130.6V130.1H179.04L180.04 129.6C181.373 129.067 182.707 128.8 184.04 128.8L187.74 128.9C191.24 129 193.84 128.5 196.54 126.4C198.14 124.3 199.24 123.9 199.64 121.1V118.6L199.84 119ZM185.24 88.9998C187.64 89.5998 189.04 91.1998 190.24 92.7998L190.54 93.1998C192.54 96.8998 193.54 99.7998 193.54 104V105.2C193.607 107.866 193.007 110.433 191.74 112.9L191.64 113C190.973 113.733 190.207 114.266 189.34 114.6C188.607 114.933 187.707 115.133 186.64 115.2L185.14 115.1C184.873 115.1 184.54 115.033 184.14 114.9H183.54C180.673 114.367 177.94 114.7 175.34 115.9H175.14C173.24 116.1 171.14 116.4 169.14 115.5L169.04 115.4C167.707 114.4 166.84 113.133 166.44 111.6V111.4L166.24 109.2C166.14 106.8 165.24 105.2 163.64 103.2C163.173 102.133 163.007 101.1 163.14 100.1V97.2998L163.94 97.5998L165.14 97.9998H167.34L169.64 97.0998C172.34 95.8998 174.84 95.6998 177.64 95.4998H178.24C179.707 95.3665 181.04 94.9332 182.24 94.1998C182.573 93.9332 182.773 93.6998 182.84 93.4998L183.34 92.6998L183.74 91.6998C184.14 91.0332 184.407 90.2998 184.54 89.4998L184.64 88.8998L185.24 88.9998ZM164.44 60.9998C165.773 60.9332 166.907 61.0332 167.84 61.2998C168.773 61.5665 169.773 62.0332 170.84 62.6998L171.84 63.1998L171.94 63.2998C176.04 66.7998 177.14 71.2998 177.14 75.8998C177.14 78.6998 176.54 81.0998 173.94 83.1998C172.615 84.1078 171.047 84.5956 169.44 84.5998H161.84L159.54 84.7998H158.14L157.94 84.8998L157.74 84.7998C156.873 84.1332 156.173 83.3998 155.64 82.5998L154.74 81.5998V81.4998L151.94 77.0998C151.44 76.0998 151.34 75.4998 151.14 74.2998V74.0998L151.54 73.0998L151.84 72.3998L152.54 72.7998L153.24 73.2998C154.773 73.8332 156.473 73.9665 158.34 73.6998C160.266 72.9814 161.842 71.549 162.74 69.6998C163.74 66.9998 163.74 64.2998 163.84 61.3998V60.9998H164.44ZM194.04 104.7C197.04 107.366 198.607 110.633 198.74 114.5V117L198.84 118C198.973 120.4 198.34 122.6 196.94 124.6C194.94 126.4 192.94 127.8 190.14 128L185.14 127.9C182.906 127.733 180.667 128.146 178.64 129.1C177.573 129.5 176.507 129.633 175.44 129.5H175.14C173.14 128.3 172.14 126.7 171.14 125L170.84 124.3C169.444 122.202 168.745 119.718 168.84 117.2V116.6H171.84L173.24 116.7H174.44L175.54 116.1C177.06 115.478 178.7 115.205 180.34 115.3L182.74 115.4L184.94 115.6H187.94L190.34 114.7C192.54 112 192.84 108.7 193.04 105.1V104L194.04 104.7ZM177.44 72.6998C180.107 73.6998 182.107 75.4332 183.44 77.8998L183.64 78.2998C184.107 79.2998 184.44 80.2998 184.64 81.2998L185.14 82.3998V82.5998L185.34 86.3998V87.3998C185.34 88.6665 185.173 89.8332 184.84 90.8998C184.44 91.8998 183.84 92.8998 183.04 93.8998C181.04 95.5998 179.34 95.6998 177.04 95.6998C174.14 95.7998 172.04 96.2998 169.24 97.4998C168.573 97.7665 167.907 97.9665 167.24 98.0998L165.04 97.9998H164.94L164.84 97.8998C162.84 96.4998 161.64 94.3998 160.54 92.5998L157.84 88.7998C157.307 87.7998 156.973 86.7998 156.84 85.7998V85.2998L157.34 85.0998C161.007 84.4332 164.673 84.1998 168.34 84.3998C169.607 84.3998 170.607 84.3332 171.34 84.1998C172.207 83.9998 173.107 83.5665 174.04 82.8998C175.056 81.6188 175.743 80.108 176.04 78.4998C176.373 76.7665 176.573 74.9998 176.64 73.1998V72.4998L177.44 72.6998ZM12.5404 119C11.4737 120.066 10.8071 121.4 10.5404 123C10.2737 124.533 10.1404 125.933 10.1404 127.2C10.2404 130.4 9.74038 137.3 11.2404 138.2C12.7404 139.1 15.2404 138.9 15.2404 138.9C18.2404 139.1 21.8404 138.1 22.2404 138.1C24.3737 138.1 26.4737 138.366 28.5404 138.9C30.6737 139.433 32.7404 139.2 34.7404 138.2C36.4019 137.138 37.6127 135.5 38.1404 133.6V133.5C38.2737 132.5 38.3071 131.533 38.2404 130.6V130.1H33.3404L32.3404 129.6C31.0071 129.067 29.6737 128.8 28.3404 128.8L24.6404 128.9C21.1404 129 18.5404 128.5 15.8404 126.4C14.1404 124.3 13.1404 123.9 12.7404 121.1V118.6L12.5404 119ZM27.0404 88.9998C24.7404 89.5998 23.3404 91.1998 22.0404 92.7998L21.8404 93.1998C19.8804 96.4615 18.8434 100.195 18.8404 104V105.2C18.7071 107.866 19.3071 110.433 20.6404 112.9L20.7404 113C21.4737 113.733 22.2071 114.266 22.9404 114.6C23.6737 114.933 24.6071 115.133 25.7404 115.2L27.2404 115.1C27.5071 115.1 27.8404 115.033 28.2404 114.9H28.8404C31.7071 114.367 34.4404 114.7 37.0404 115.9H37.2404C39.1404 116.1 41.2404 116.4 43.2404 115.5L43.3404 115.4C44.8404 114.4 45.4404 113.2 45.9404 111.6V111.4L46.1404 109.2C46.2404 106.8 47.1404 105.2 48.7404 103.2C49.3404 102 49.2404 101.2 49.2404 100.1V97.2998L48.4404 97.5998L47.2404 97.9998H45.1404L42.8404 97.0998C40.2968 96.0724 37.5835 95.5297 34.8404 95.4998H34.1404C32.7231 95.3885 31.3523 94.943 30.1404 94.1998C29.8071 93.9332 29.6071 93.6998 29.5404 93.4998L29.0404 92.6998L28.6404 91.6998C28.2404 91.0332 27.9737 90.2998 27.8404 89.4998L27.7404 88.8998L27.0404 88.9998ZM47.9404 60.9998C46.6071 60.9332 45.4737 61.0332 44.5404 61.2998C43.6071 61.5665 42.6071 62.0332 41.5404 62.6998L40.5404 63.1998L40.4404 63.2998C36.3404 66.7998 35.2404 71.2998 35.2404 75.8998C35.2404 78.6998 35.8404 81.0998 38.4404 83.1998C39.8404 84.1332 41.3404 84.5998 42.9404 84.5998H50.5404L52.8404 84.7998H54.2404L54.4404 84.8998L54.6404 84.7998C55.5071 84.1332 56.2071 83.3998 56.7404 82.5998L57.6404 81.5998V81.4998L60.4404 77.0998C60.9404 76.0998 61.0404 75.4998 61.2404 74.2998V74.0998L60.8404 73.0998L60.5404 72.3998L59.8404 72.7998L59.1404 73.2998C57.6071 73.8332 55.9071 73.9665 54.0404 73.6998C52.1143 72.9814 50.5386 71.549 49.6404 69.6998C48.6404 66.9998 48.6404 64.2998 48.5404 61.3998V60.9998H47.9404ZM18.3404 104.7C16.8962 105.897 15.7284 107.393 14.9171 109.085C14.1058 110.777 13.6703 112.624 13.6404 114.5V117L13.5404 118C13.4071 120.4 14.0404 122.6 15.4404 124.6C17.4404 126.4 19.4404 127.8 22.2404 128L27.2404 127.9C29.7404 127.8 31.5404 128 33.7404 129.1C34.9404 129.5 35.7404 129.6 36.9404 129.5H37.2404C39.2404 128.3 40.2404 126.7 41.2404 125L41.5404 124.3C42.9404 122.167 43.6071 119.8 43.5404 117.2V116.6H40.5404L39.1404 116.7H37.9404L36.8404 116.1C35.3202 115.478 33.6801 115.205 32.0404 115.3L29.6404 115.4L27.4404 115.6H24.4404L22.0404 114.7C19.8404 112 19.5404 108.7 19.3404 105.1V104L18.3404 104.7ZM34.9404 72.6998C32.2737 73.6998 30.2737 75.4332 28.9404 77.8998L28.7404 78.2998C28.3404 79.2998 28.0071 80.2998 27.7404 81.2998L27.2404 82.3998V82.5998L27.0404 86.3998V87.3998C27.0404 88.6665 27.2071 89.8332 27.5404 90.8998C27.9404 91.8998 28.5404 92.8998 29.3404 93.8998C31.3404 95.5998 33.0404 95.6998 35.3404 95.6998C38.2404 95.7998 40.3404 96.2998 43.0404 97.4998L45.1404 98.0998L47.3404 97.9998H47.4404L47.5404 97.8998C49.5404 96.4998 50.6404 94.3998 51.8404 92.5998L54.5404 88.7998C55.0737 87.7998 55.4071 86.7998 55.5404 85.7998V85.2998L55.0404 85.0998C51.3737 84.4332 47.7071 84.1998 44.0404 84.3998C42.7737 84.3998 41.7737 84.3332 41.0404 84.1998C40.1071 83.9998 39.2071 83.5665 38.3404 82.8998C37.324 81.6188 36.6373 80.108 36.3404 78.4998C36.0071 76.7665 35.8071 74.9998 35.7404 73.1998V72.4998L34.9404 72.6998ZM61.7404 48.4998C61.0177 48.1354 60.2288 47.921 59.4211 47.8694C58.6133 47.8179 57.8035 47.9303 57.0404 48.1998H56.7404V48.2998C53.1404 49.8998 50.5404 53.5998 48.9404 56.9998C47.4404 61.5998 48.4404 66.4998 50.4404 70.4998C51.1581 71.8168 52.2799 72.8685 53.6404 73.4998L53.7404 73.5998C55.7404 73.9998 57.7404 74.0998 59.7404 72.9998C61.6404 71.2998 63.4404 69.0998 64.2404 66.4998V66.2998C64.1874 65.1337 63.8437 63.9992 63.2404 62.9998C62.7343 61.8008 62.5283 60.4964 62.6404 59.1998V57.5998L62.7404 54.9998L62.8404 50.9998C62.8404 50.3998 62.7737 49.9332 62.6404 49.5998L61.9404 48.5998L61.7404 48.4998Z" stroke="#E3E3E3" stroke-width="2" id="tanden" data-code="245543004" data-display="tanden" data-system="http://snomed.info/sct"/>
<path d="M16.131 299.968C21.1191 300.915 26.9451 300.612 32.6837 298.862C35.7685 297.916 40.3984 295.656 45.4649 292.724C50.5224 289.797 55.9822 286.219 60.7189 282.658C67.0838 277.843 70.912 275.113 75.4063 272.876C79.8946 270.642 85.0335 268.907 94.006 266.051C104.036 262.839 120.3 254.358 134.712 245.229C141.913 240.668 148.636 235.954 153.873 231.669C156.492 229.526 158.733 227.495 160.474 225.649C162.221 223.797 163.438 222.157 164.043 220.797C168.793 210.117 170.822 206.951 173.025 200.342C174.738 195.204 174.377 190.423 173.755 186.134C173.447 184.008 173.066 181.954 172.862 180.094C172.674 178.377 172.626 176.755 172.926 175.273C172.007 174.84 170.585 174.349 168.741 173.825C166.664 173.235 164.088 172.613 161.169 171.989C155.331 170.742 148.14 169.494 140.869 168.495C133.597 167.496 126.255 166.749 120.112 166.5C117.041 166.375 114.277 166.376 111.976 166.53C109.664 166.686 107.86 166.994 106.686 167.464L106.45 167.559L106.235 167.424C106.057 167.312 105.735 167.19 105.24 167.077C104.755 166.966 104.141 166.871 103.404 166.795C101.931 166.642 100.003 166.566 97.712 166.57C93.1307 166.578 87.1314 166.905 80.4864 167.561C67.2833 168.862 51.5752 171.456 39.4083 175.395C37.2461 182.994 37.2459 189.882 36.3497 197.041C35.4463 204.257 33.6329 211.606 27.7315 219.835L27.7306 219.837L27.1026 220.719C20.473 230.169 9.48539 249.933 6.21688 258.258C3.37095 265.515 1.80061 272.794 1.53913 279.055C1.27685 285.335 2.33494 290.51 4.65241 293.636L4.65144 293.637C7.02766 296.829 11.1367 299.02 16.131 299.968Z" fill="#CFCFCF" stroke="#B6B6B6"/>
<path d="M138 194.5C130.893 193.823 121.5 192.5 105.5 214C101.636 211.579 97.1585 192 73.4896 192C53.202 193.942 38.7122 205.33 27.432 221.102C21.0936 229.891 9.8672 250.057 6.59058 258.425C1.05793 272.572 0.467066 286.839 5.14028 293.159C9.92092 299.601 21.5234 301.828 32.7498 298.397C38.8196 296.531 50.7981 289.548 59.9833 282.625C72.2841 273.294 74.6476 272.15 91.9975 266.612C112 259 133.5 246 146.5 237C153.965 231.832 162 224.5 164 220.5C165.731 211.482 148.5 195.5 138 194.5Z" fill="#CFCFCF" id="voorste_2_3_tong" data-code="11f6835e9c894b3aa5102616861f5852" data-display="voorste 2/3 tong (NNO)" data-system="http://templates.tiro.health/templates/1bac7fe159c94f07998086ecd0d54e42/custom-codes"/>
<path d="M103 166.5C104.7 166.5 108.2 166 110 166C110.044 168.095 109.775 170.185 109.2 172.2C107.6 177.8 107.5 183.9 107.1 189.6V190.8C106.5 198.4 105.567 206.333 105.5 214C105.167 204.467 104.767 194.6 104.7 185C104.7 183 104 181 104 179C104 175 103 170.5 103 166.5Z" fill="#B0B0B0"/>
<path d="M203.15 198C203.65 203 201.65 212 199.15 214.5C199.65 226.5 195.15 230 193.564 232.5C193.564 238.5 193.5 239.5 194 249.5C201.5 243 204.849 223.934 205.65 221C207.15 215.5 208.65 198.5 209.15 192C202.65 192 205.941 192 198.65 192C202.65 194 203.15 198 203.15 198ZM8.07925 198.052C7.82265 203.096 9.71698 207.978 11 210.5C10.7434 222.604 11 225 18 231C18 237.052 18.2568 223.913 18.0002 234C16.0002 237.5 15.5002 239 14.0002 241.5C9.08546 249.691 5.2566 198.557 5 192C8.33585 192 8.2582 192 12 192C9.94717 194.017 8.07925 198.052 8.07925 198.052Z" fill="#E1DFDF" id="wangslijmvlies" data-code="16811007" data-display="wangslijmvlies" data-system="http://snomed.info/sct"/>
</g>
</g>
<defs>
<clipPath id="clip0_308_157">
<rect width="213" height="321" fill="white"/>
</clipPath>
</defs>
</svg>
